<svg width="141" height="48" viewBox="0 0 141 48" fill="none" xmlns="http://www.w3.org/2000/svg">
<rect y="6.10352e-05" width="141" height="48" rx="10" fill="#15FF3A"/>
<path d="M51.4091 29.0001V17.3637H52.8182V27.7501H58.2273V29.0001H51.4091ZM63.7727 29.1819C62.9848 29.1819 62.2936 28.9944 61.6989 28.6194C61.108 28.2444 60.6458 27.7198 60.3125 27.0455C59.983 26.3713 59.8182 25.5834 59.8182 24.6819C59.8182 23.7728 59.983 22.9792 60.3125 22.3012C60.6458 21.6232 61.108 21.0967 61.6989 20.7217C62.2936 20.3467 62.9848 20.1592 63.7727 20.1592C64.5606 20.1592 65.25 20.3467 65.8409 20.7217C66.4356 21.0967 66.8977 21.6232 67.2273 22.3012C67.5606 22.9792 67.7273 23.7728 67.7273 24.6819C67.7273 25.5834 67.5606 26.3713 67.2273 27.0455C66.8977 27.7198 66.4356 28.2444 65.8409 28.6194C65.25 28.9944 64.5606 29.1819 63.7727 29.1819ZM63.7727 27.9773C64.3712 27.9773 64.8636 27.8239 65.25 27.5171C65.6364 27.2103 65.9223 26.8069 66.108 26.3069C66.2936 25.8069 66.3864 25.2652 66.3864 24.6819C66.3864 24.0985 66.2936 23.555 66.108 23.0512C65.9223 22.5474 65.6364 22.1402 65.25 21.8296C64.8636 21.519 64.3712 21.3637 63.7727 21.3637C63.1742 21.3637 62.6818 21.519 62.2955 21.8296C61.9091 22.1402 61.6231 22.5474 61.4375 23.0512C61.2519 23.555 61.1591 24.0985 61.1591 24.6819C61.1591 25.2652 61.2519 25.8069 61.4375 26.3069C61.6231 26.8069 61.9091 27.2103 62.2955 27.5171C62.6818 27.8239 63.1742 27.9773 63.7727 27.9773ZM73.2969 32.4546C72.6491 32.4546 72.0923 32.3713 71.6264 32.2046C71.1605 32.0417 70.7723 31.8258 70.4616 31.5569C70.1548 31.2917 69.9105 31.0076 69.7287 30.7046L70.7969 29.9546C70.9181 30.1137 71.0715 30.2955 71.2571 30.5001C71.4427 30.7084 71.6965 30.8883 72.0185 31.0398C72.3442 31.1951 72.7704 31.2728 73.2969 31.2728C74.0014 31.2728 74.5829 31.1023 75.0412 30.7614C75.4995 30.4205 75.7287 29.8864 75.7287 29.1592V27.3864H75.6151C75.5166 27.5455 75.3764 27.7425 75.1946 27.9773C75.0166 28.2084 74.759 28.4148 74.4219 28.5967C74.0885 28.7747 73.6378 28.8637 73.0696 28.8637C72.3651 28.8637 71.7325 28.697 71.1719 28.3637C70.6151 28.0304 70.1738 27.5455 69.848 26.9092C69.526 26.2728 69.3651 25.5001 69.3651 24.591C69.3651 23.697 69.5223 22.9186 69.8366 22.2557C70.151 21.5891 70.5885 21.0739 71.1491 20.7103C71.7098 20.3429 72.3575 20.1592 73.0923 20.1592C73.6605 20.1592 74.1113 20.2538 74.4446 20.4432C74.7817 20.6288 75.0393 20.841 75.2173 21.0796C75.3991 21.3145 75.5393 21.5076 75.6378 21.6592H75.7741V20.2728H77.0696V29.2501C77.0696 30.0001 76.8991 30.6099 76.5582 31.0796C76.2211 31.5531 75.7666 31.8997 75.1946 32.1194C74.6264 32.3429 73.9938 32.4546 73.2969 32.4546ZM73.2514 27.6592C73.7893 27.6592 74.2438 27.536 74.6151 27.2898C74.9863 27.0436 75.2685 26.6895 75.4616 26.2273C75.6548 25.7652 75.7514 25.2122 75.7514 24.5682C75.7514 23.9395 75.6567 23.3845 75.4673 22.9035C75.2779 22.4224 74.9976 22.0455 74.6264 21.7728C74.2552 21.5001 73.7969 21.3637 73.2514 21.3637C72.6832 21.3637 72.2098 21.5076 71.831 21.7955C71.456 22.0834 71.1738 22.4698 70.9844 22.9546C70.7988 23.4395 70.706 23.9773 70.706 24.5682C70.706 25.1743 70.8007 25.7103 70.9901 26.1762C71.1832 26.6383 71.4673 27.002 71.8423 27.2671C72.2211 27.5285 72.6908 27.6592 73.2514 27.6592ZM79.5241 29.0001V20.2728H80.8651V29.0001H79.5241ZM80.206 18.8182C79.9446 18.8182 79.7192 18.7292 79.5298 18.5512C79.3442 18.3732 79.2514 18.1592 79.2514 17.9092C79.2514 17.6592 79.3442 17.4451 79.5298 17.2671C79.7192 17.0891 79.9446 17.0001 80.206 17.0001C80.4673 17.0001 80.6908 17.0891 80.8764 17.2671C81.0658 17.4451 81.1605 17.6592 81.1605 17.9092C81.1605 18.1592 81.0658 18.3732 80.8764 18.5512C80.6908 18.7292 80.4673 18.8182 80.206 18.8182ZM84.6619 23.7501V29.0001H83.321V20.2728H84.6165V21.6364H84.7301C84.9347 21.1932 85.2453 20.8372 85.6619 20.5682C86.0786 20.2955 86.6165 20.1592 87.2756 20.1592C87.8665 20.1592 88.3835 20.2804 88.8267 20.5228C89.2699 20.7614 89.6146 21.1251 89.8608 21.6137C90.107 22.0985 90.2301 22.7122 90.2301 23.4546V29.0001H88.8892V23.5455C88.8892 22.8599 88.7112 22.3258 88.3551 21.9432C87.9991 21.5569 87.5104 21.3637 86.8892 21.3637C86.4612 21.3637 86.0786 21.4565 85.7415 21.6421C85.4081 21.8277 85.1449 22.0985 84.9517 22.4546C84.7585 22.8107 84.6619 23.2425 84.6619 23.7501Z" fill="white"/>
</svg>
